<svg xmlns="http://www.w3.org/2000/svg" viewBox="0 0 850.8 801.02"><defs><style>.cls-1,.cls-3{fill:none;stroke:#fff;stroke-miterlimit:10;stroke-width:6px;}.cls-1,.cls-2{opacity:0.58;}.cls-4{fill:#fff;}</style></defs><title>logo</title><g id="Layer_2" data-name="Layer 2"><g id="Layer_3" data-name="Layer 3"><line class="cls-1" x1="3.26" y1="396.5" x2="425.32" y2="396.5"/><line class="cls-1" x1="109.44" y1="44.05" x2="424.79" y2="395.31"/><line class="cls-1" x1="426.01" y1="396.67" x2="158.69" y2="694.45"/><path class="cls-1" d="M158.37,693.44S229.86,443,.59,397.09"/><path class="cls-1" d="M425.86,800.66S394.91,545.09,158,693.68"/><path class="cls-1" d="M3.26,397.69S238,272.87,109.44,44.05"/><path class="cls-1" d="M110,43.88S360.76,289.52,425.86.66"/><path class="cls-1" d="M259.87,582.19s53-159.51-106.68-185.1"/><path class="cls-1" d="M425.86,659.2s-18.15-166.42-168.08-76.67"/><path class="cls-1" d="M425.25,545.7s-4-104.39-91.3-46.32"/><path class="cls-1" d="M332.85,500.21s51.81-105.16-54.76-103.45"/><path class="cls-1" d="M290.56,396.31S395.18,364.76,319,278.52"/><path class="cls-1" d="M320.38,278.84s99.07,86.75,104.9-35"/><path class="cls-1" d="M153.73,397.69S341,299.62,214.56,161.14"/><path class="cls-1" d="M224,171.15s186.9,151.65,201-68.37"/><g class="cls-2"><line class="cls-3" x1="424.95" y1="0.66" x2="424.95" y2="800.66"/></g><line class="cls-1" x1="850.59" y1="396.5" x2="425.48" y2="396.5"/><line class="cls-1" x1="741.28" y1="44.14" x2="426.01" y2="395.31"/><line class="cls-1" x1="424.79" y1="396.67" x2="692.04" y2="694.36"/><path class="cls-1" d="M692.43,693.44S620.94,443,850.21,397.09"/><path class="cls-1" d="M425,800.66s30.94-255.57,267.86-107"/><path class="cls-1" d="M847.54,397.69S612.77,272.87,741.36,44.05"/><path class="cls-1" d="M740.83,43.88S490,289.52,425,.66"/><path class="cls-1" d="M590.93,582.19s-53-159.51,106.68-185.1"/><path class="cls-1" d="M425,659.2S443.09,492.78,593,582.53"/><path class="cls-1" d="M425.55,545.7s4-104.39,91.3-46.32"/><path class="cls-1" d="M518,500.21s-51.82-105.16,54.75-103.45"/><path class="cls-1" d="M560.24,396.31s-104.62-31.55-28.41-117.79"/><path class="cls-1" d="M530.42,278.84s-99.07,86.75-104.89-35"/><path class="cls-1" d="M697.07,397.69s-187.28-98.07-60.82-236.55"/><path class="cls-1" d="M626.79,171.15s-186.9,151.65-201-68.37"/><path class="cls-4" d="M209.39,589.06a75.64,75.64,0,0,0,18.9.46A79.15,79.15,0,0,0,247,585.16q22.56-8.13,31.88-22.95T281.88,530q-7.51-20.85-51.34-36.11l-.26-.12a21.24,21.24,0,0,1-2.18-.71Q164.88,471.48,154,441.35a70.05,70.05,0,0,1-3.77-29.48A88.14,88.14,0,0,1,158.61,381a132.13,132.13,0,0,1,27.14-38.16,102.77,102.77,0,0,1,36.7-23q14.78-5.34,24-3.07T259.11,329q1.23,3.41.79,9.89a114,114,0,0,1-2.46,15.77,91.44,91.44,0,0,0-16.74.78,81.45,81.45,0,0,0-16.21,4q-24.27,8.74-34.08,24.59t-3,34.8a41.69,41.69,0,0,0,13,18.64q8.92,7.28,28.93,14.63,3,1.08,8.61,3.1,67.13,24.65,77.92,54.58a67.86,67.86,0,0,1,4,23.83,88,88,0,0,1-4.44,26,98.67,98.67,0,0,1-24.59,39.6,110.46,110.46,0,0,1-41,25.58q-16.11,5.81-26.37,3.19t-14.15-13.42a33.37,33.37,0,0,1-1.81-11.24A62.51,62.51,0,0,1,209.39,589.06Z"/><path class="cls-4" d="M498.66,231.91a79,79,0,0,1,10.08-7.38,53.68,53.68,0,0,1,9.39-4.56q8.91-3.21,14.69.06t9.6,13.88q5.75,15.93,5.18,50.6T540,372.06q34.44,32.57,54.41,48.49t24.34,14.35q2.65-1,7-12.37a159.17,159.17,0,0,0,7.28-27q12.16-60.69,12-104.22t-12.45-77.63A96.83,96.83,0,0,0,625.89,199,106.65,106.65,0,0,0,617.22,186a93.48,93.48,0,0,1,10.3-7.67,50.13,50.13,0,0,1,9.79-4.92q10.43-3.75,17.18.44t11.61,17.66q11.42,31.65,11.19,80.34T664.8,377.39l-.46,2.31q-22.65,107.08-32.12,110.5-10.8,3.9-98.28-82.56l-2.61-2.49q-13.3,63.47-25,99.05t-20,38.6Q481,544.71,467.38,534t-32.74-32.31q-28.41-31.31-73.27-83.88-72.94-85.91-95.93-93.26a61.82,61.82,0,0,1,9.17-16.15,27.21,27.21,0,0,1,11.71-8.51q11-4,21.6,2.28t35.14,35.73q15.63,19,42.68,51.86,82.67,101,91.57,97.83,6.44-2.31,14.72-30.14t16.31-75.68q-44.55-49.9-69.93-72.23t-42.52-27.08q2.42-10.5,7.27-16.65a28,28,0,0,1,12.82-9q20.46-7.38,96.82,85.66a57.21,57.21,0,0,0,3.81,4.62q2.55-31.53,1.14-54.48T511,254.87a85.19,85.19,0,0,0-5.26-11.6A107.31,107.31,0,0,0,498.66,231.91Z"/></g></g></svg>